<svg width="259" height="50" viewBox="0 0 259 50" fill="none" xmlns="http://www.w3.org/2000/svg">
<path d="M117.984 43.1702L118.513 45.2321H118.913L119.3 43.1272L121.789 36.2544H125.637L119.529 49.7424H117.497L111.145 36.2544H115.28L117.984 43.1702Z" fill="#00918E"/>
<path d="M126.911 36.2543H130.473V49.6134H126.911V36.2543ZM126.381 33.3763C126.381 32.8322 126.582 32.374 126.968 32.016C127.354 31.6581 127.898 31.4719 128.613 31.4719C129.328 31.4719 129.915 31.6581 130.344 32.0303C130.773 32.4026 130.974 32.8608 130.974 33.3763C130.974 33.8774 130.759 34.2927 130.344 34.6506C129.915 35.0086 129.343 35.1804 128.613 35.1804C127.883 35.1804 127.34 35.0086 126.968 34.6506C126.582 34.2927 126.381 33.8631 126.381 33.3763Z" fill="#00918E"/>
<path d="M143.205 48.7971C142.633 49.1837 141.946 49.4844 141.131 49.6849C140.33 49.8853 139.486 49.9856 138.627 49.9856C137.469 49.9856 136.51 49.8138 135.723 49.4844C134.936 49.1408 134.293 48.654 133.792 48.0383C133.291 47.4083 132.933 46.6637 132.705 45.8046C132.49 44.9455 132.375 44.0005 132.375 42.9409C132.375 40.7215 132.919 38.989 134.021 37.729C135.108 36.4833 136.696 35.8533 138.785 35.8533C139.8 35.8533 140.63 35.9392 141.288 36.0967C141.946 36.2542 142.519 36.469 143.034 36.7267L142.161 39.5761C141.717 39.3899 141.288 39.2467 140.859 39.1608C140.43 39.0749 139.929 39.0176 139.343 39.0176C138.284 39.0176 137.454 39.3183 136.896 39.934C136.324 40.5497 136.038 41.552 136.038 42.9266C136.038 43.4707 136.109 43.9718 136.238 44.4443C136.381 44.9168 136.582 45.3321 136.882 45.69C137.168 46.048 137.54 46.3201 137.969 46.5348C138.413 46.7353 138.928 46.8355 139.514 46.8355C140.23 46.8355 140.788 46.7782 141.202 46.6494C141.617 46.5205 142.018 46.3487 142.39 46.1339L143.205 48.7971Z" fill="#00918E"/>
<path d="M150.759 38.6741C149.7 38.6741 148.928 38.9605 148.427 39.5332C147.912 40.1059 147.626 40.8219 147.54 41.7096H153.277C153.348 40.7789 153.177 40.0343 152.762 39.4902C152.361 38.9461 151.689 38.6741 150.759 38.6741ZM156.11 48.3963C155.537 48.8402 154.75 49.2125 153.749 49.5275C152.762 49.8425 151.689 50 150.559 50C148.27 50 146.596 49.37 145.523 48.1099C144.45 46.8499 143.921 45.1317 143.921 42.941C143.921 40.6214 144.522 38.8602 145.723 37.6575C146.925 36.4547 148.627 35.8677 150.802 35.8677C151.517 35.8677 152.218 35.9536 152.919 36.1397C153.606 36.3259 154.221 36.6122 154.779 37.0275C155.323 37.4427 155.752 38.0011 156.081 38.7027C156.41 39.4043 156.582 40.2778 156.582 41.3087C156.582 41.6666 156.567 42.0532 156.524 42.4828C156.482 42.898 156.41 43.3419 156.31 43.8001H147.411C147.497 44.9599 147.826 45.8047 148.413 46.3631C148.999 46.9215 149.958 47.1936 151.274 47.1936C152.075 47.1936 152.791 47.079 153.434 46.8499C154.064 46.6208 154.55 46.3917 154.894 46.1483L156.11 48.3963Z" fill="#00918E"/>
<path d="M158.813 46.1483C159.057 46.2772 159.328 46.3917 159.643 46.5063C159.958 46.6351 160.301 46.7354 160.659 46.8356C161.031 46.9358 161.403 47.0217 161.775 47.0933C162.161 47.1649 162.547 47.1936 162.934 47.1936C163.535 47.1936 163.992 47.0933 164.321 46.9072C164.65 46.7211 164.822 46.3631 164.822 45.8619C164.822 45.461 164.593 45.1603 164.15 44.9599C163.706 44.7594 163.163 44.5733 162.519 44.3871C162.047 44.244 161.546 44.0865 161.031 43.9003C160.516 43.7142 160.03 43.4708 159.615 43.1558C159.185 42.8408 158.828 42.4255 158.542 41.9244C158.27 41.4089 158.127 40.7646 158.127 39.9914C158.127 38.6598 158.542 37.6288 159.371 36.9272C160.201 36.2256 161.389 35.8677 162.962 35.8677C163.964 35.8677 164.937 35.9536 165.824 36.1397C166.711 36.3259 167.426 36.5263 167.969 36.7697L167.226 39.4616C166.782 39.2898 166.224 39.118 165.537 38.9461C164.851 38.7743 164.15 38.6741 163.434 38.6741C162.834 38.6741 162.39 38.76 162.118 38.9461C161.832 39.118 161.689 39.433 161.689 39.8768C161.689 40.2634 161.918 40.5641 162.361 40.7503C162.805 40.9507 163.349 41.1369 163.992 41.323C164.479 41.4519 164.979 41.6237 165.48 41.7955C165.995 41.9673 166.467 42.2107 166.896 42.5258C167.326 42.8264 167.669 43.2274 167.955 43.7142C168.241 44.201 168.384 44.8024 168.384 45.5326C168.384 46.9502 167.927 48.0527 166.997 48.8402C166.067 49.6134 164.693 50.0143 162.848 50.0143C161.846 50.0143 160.916 49.9284 160.044 49.7422C159.185 49.5704 158.47 49.3127 157.941 48.9691L158.828 46.1626L158.813 46.1483Z" fill="#00918E"/>
<path d="M192.004 48.8545C191.446 49.2554 190.731 49.5418 189.872 49.7136C189 49.8711 188.084 49.957 187.126 49.957C185.995 49.957 184.908 49.7709 183.878 49.4129C182.848 49.055 181.947 48.4966 181.174 47.7234C180.387 46.9788 179.772 46.0195 179.314 44.8453C178.857 43.6856 178.628 42.311 178.628 40.7073C178.628 39.1037 178.885 37.6289 179.386 36.4547C179.901 35.2806 180.559 34.3213 181.374 33.5911C182.176 32.8608 183.106 32.3167 184.121 31.9731C185.137 31.6437 186.138 31.4719 187.14 31.4719C188.27 31.4719 189.171 31.5292 189.887 31.6437C190.602 31.7583 191.203 31.9158 191.689 32.1019L191.131 34.2927C190.302 33.9061 189.043 33.7056 187.34 33.7056C186.568 33.7056 185.824 33.8201 185.108 34.0779C184.379 34.3213 183.735 34.7222 183.177 35.2806C182.605 35.8247 182.161 36.555 181.818 37.4427C181.475 38.3305 181.303 39.4187 181.303 40.7216C181.303 41.8671 181.46 42.8837 181.789 43.7571C182.104 44.6449 182.548 45.3608 183.12 45.9479C183.692 46.5349 184.35 46.9788 185.123 47.2652C185.895 47.5659 186.739 47.709 187.655 47.709C188.485 47.709 189.2 47.6374 189.815 47.4799C190.416 47.3224 190.945 47.1363 191.36 46.8929L191.975 48.8545H192.004Z" fill="#004289"/>
<path d="M195.537 42.941C195.537 43.571 195.609 44.1867 195.752 44.7881C195.895 45.3894 196.124 45.9335 196.439 46.4061C196.754 46.8786 197.168 47.2652 197.669 47.5515C198.17 47.8379 198.785 47.9811 199.529 47.9811C202.147 47.9811 203.449 46.2915 203.449 42.941C203.449 42.2823 203.377 41.638 203.234 41.0366C203.091 40.4209 202.862 39.8912 202.548 39.4187C202.233 38.9461 201.832 38.5739 201.332 38.2875C200.831 38.0011 200.23 37.8579 199.529 37.8579C198.227 37.8579 197.24 38.2732 196.553 39.118C195.881 39.9484 195.537 41.2371 195.537 42.941ZM192.991 42.941C192.991 41.8385 193.134 40.8505 193.42 39.9771C193.706 39.1036 194.135 38.3591 194.693 37.7577C195.251 37.142 195.924 36.6838 196.739 36.3545C197.54 36.0252 198.47 35.8677 199.5 35.8677C200.588 35.8677 201.532 36.0395 202.347 36.4118C203.163 36.7697 203.835 37.2566 204.379 37.9009C204.922 38.5452 205.323 39.2898 205.58 40.1489C205.838 41.008 205.981 41.9387 205.981 42.9553C205.981 44.0435 205.838 45.0172 205.538 45.8763C205.237 46.7497 204.822 47.4799 204.264 48.0956C203.706 48.7113 203.034 49.1695 202.233 49.4988C201.432 49.8138 200.516 49.9857 199.5 49.9857C198.384 49.9857 197.412 49.8138 196.61 49.4559C195.795 49.0979 195.123 48.6111 194.593 47.9811C194.064 47.3511 193.663 46.6065 193.392 45.7474C193.134 44.8883 192.991 43.9576 192.991 42.9553" fill="#004289"/>
<path d="M210.144 36.2543V43.5997C210.144 44.3156 210.187 44.9313 210.273 45.4897C210.359 46.0338 210.502 46.4777 210.731 46.85C210.96 47.2222 211.246 47.4943 211.632 47.6947C212.018 47.8809 212.49 47.9954 213.091 47.9954C214.107 47.9954 214.937 47.7091 215.581 47.122C216.224 46.5493 216.711 45.8333 217.054 44.9886V36.2543H219.386V45.819C219.386 46.4634 219.415 47.122 219.458 47.795C219.5 48.4679 219.586 49.0693 219.686 49.6134H218.113L217.498 47.3941H217.24C216.797 48.1529 216.181 48.7829 215.409 49.2555C214.622 49.728 213.649 49.9714 212.476 49.9714C211.704 49.9714 211.017 49.8855 210.43 49.685C209.844 49.4989 209.343 49.1839 208.957 48.7257C208.556 48.2818 208.27 47.6804 208.07 46.9216C207.87 46.177 207.784 45.2463 207.784 44.1295V36.24H210.116L210.144 36.2543Z" fill="#004289"/>
<path d="M231.031 49.6134V42.2251C231.031 40.8075 230.802 39.7337 230.345 39.0177C229.887 38.3018 229.071 37.9582 227.898 37.9582C226.868 37.9582 226.01 38.2159 225.323 38.76C224.636 39.2898 224.15 39.9771 223.892 40.8075V49.6134H221.546V36.2543H223.177L223.635 38.0298H223.864C224.365 37.4284 224.994 36.9129 225.781 36.4834C226.568 36.0681 227.512 35.8677 228.614 35.8677C229.4 35.8677 230.087 35.9536 230.674 36.1397C231.26 36.3259 231.761 36.6266 232.161 37.0847C232.562 37.5286 232.862 38.1443 233.063 38.8889C233.263 39.6477 233.363 40.6071 233.363 41.7526V49.6134H231.031Z" fill="#004289"/>
<path d="M246.024 48.697C245.438 49.1266 244.737 49.4416 243.935 49.642C243.134 49.8568 242.305 49.9713 241.418 49.9713C240.302 49.9713 239.343 49.7995 238.556 49.4559C237.77 49.1122 237.14 48.6397 236.639 48.0384C236.153 47.4227 235.795 46.6924 235.566 45.819C235.352 44.9456 235.237 44.0006 235.237 42.941C235.237 40.6787 235.781 38.9461 236.883 37.7148C237.97 36.4834 239.543 35.8677 241.589 35.8677C242.491 35.8677 243.263 35.9536 243.935 36.1111C244.594 36.2686 245.194 36.4691 245.709 36.7125L245.109 38.6168C244.651 38.3734 244.164 38.1873 243.635 38.0584C243.106 37.9152 242.533 37.8579 241.904 37.8579C239.157 37.8579 237.784 39.5618 237.784 42.941C237.784 43.5853 237.855 44.201 238.013 44.8167C238.17 45.4181 238.413 45.9479 238.742 46.4204C239.086 46.8929 239.529 47.2652 240.073 47.5515C240.616 47.8379 241.289 47.9811 242.076 47.9811C242.777 47.9811 243.406 47.8808 243.935 47.6804C244.465 47.4799 244.908 47.2508 245.266 46.9788L246.024 48.6827V48.697Z" fill="#004289"/>
<path d="M248.041 36.2542H250.388V49.6133H248.041V36.2542ZM247.555 33.0755C247.555 32.6889 247.712 32.331 248.013 32.016C248.313 31.701 248.714 31.5435 249.214 31.5435C249.715 31.5435 250.116 31.701 250.43 32.016C250.745 32.331 250.917 32.6746 250.917 33.0755C250.917 33.4764 250.76 33.8058 250.43 34.1065C250.116 34.4071 249.701 34.5503 249.214 34.5503C248.728 34.5503 248.313 34.3928 248.013 34.1065C247.698 33.8058 247.555 33.4621 247.555 33.0755Z" fill="#004289"/>
<path d="M255.538 46.0768C255.538 46.764 255.667 47.2652 255.938 47.5516C256.196 47.8379 256.554 47.9954 256.983 47.9954C257.255 47.9954 257.526 47.9811 257.77 47.9382C258.027 47.8952 258.328 47.8379 258.685 47.7377L259 49.4702C258.828 49.5418 258.628 49.5991 258.385 49.6564C258.142 49.7136 257.898 49.7709 257.655 49.8139C257.398 49.8711 257.14 49.9141 256.883 49.9284C256.625 49.9571 256.396 49.9714 256.196 49.9714C255.28 49.9714 254.551 49.7423 254.007 49.2698C253.463 48.7973 253.192 48.0241 253.192 46.9359V31.8013H255.524V46.0768H255.538Z" fill="#004289"/>
<path d="M34.1776 12.4714C32.4179 12.6575 30.5152 12.7721 28.5409 12.7721C19.1274 12.7721 11.5022 10.3952 11.5022 7.45991C11.5022 4.52463 19.1274 2.14777 28.5409 2.14777C30.5152 2.14777 32.4179 2.248 34.1776 2.44845V0.257732C32.3321 0.100229 30.415 0 28.4551 0C12.7325 0 0 5.46965 0 12.2423C0 19.0149 12.7325 24.4702 28.4551 24.4702C30.415 24.4702 32.3321 24.3843 34.1776 24.2268V12.4714Z" fill="#00918E"/>
<path d="M27.2248 5.31226C26.2234 5.31226 25.2363 5.34089 24.2634 5.39817V7.91821C25.0074 7.88958 25.7513 7.86094 26.5238 7.86094C41.0733 7.86094 52.8616 13.6885 52.8616 20.8907C52.8616 28.0929 41.0733 33.9205 26.5238 33.9205C25.7656 33.9205 25.0074 33.9062 24.2634 33.8632V49.4847C25.2363 49.5419 26.2234 49.5706 27.2248 49.5706C46.7957 49.5706 62.6757 39.6622 62.6757 27.4486C62.6757 15.2349 46.7957 5.31226 27.2248 5.31226Z" fill="#004289"/>
<path d="M83.0906 22.3654C83.0906 21.6781 82.8617 21.134 82.4039 20.7331C81.9461 20.3321 81.3739 19.9742 80.6729 19.6878C79.9719 19.4014 79.228 19.1151 78.4411 18.8573C77.64 18.5996 76.896 18.256 76.195 17.855C75.494 17.4541 74.9218 16.9243 74.464 16.28C74.0062 15.6357 73.7773 14.7909 73.7773 13.76C73.7773 12.3138 74.3066 11.154 75.3653 10.2663C76.4239 9.37853 77.9404 8.94897 79.9147 8.94897C81.0448 8.94897 82.0892 9.03489 83.0334 9.20671C83.9776 9.37853 84.7215 9.5933 85.2652 9.86535L84.4783 11.9988C84.0492 11.784 83.4197 11.5979 82.5756 11.4404C81.7315 11.2686 80.7873 11.1827 79.7716 11.1827C78.6271 11.1827 77.7544 11.4261 77.1822 11.9129C76.6099 12.3997 76.3238 12.9581 76.3238 13.6025C76.3238 14.2468 76.5527 14.7909 77.0105 15.1918C77.4683 15.5927 78.0405 15.9507 78.7415 16.2657C79.4425 16.5807 80.1865 16.8814 80.9876 17.1678C81.7745 17.4541 82.5184 17.8121 83.2194 18.2273C83.9061 18.6569 84.4926 19.1723 84.9504 19.788C85.4082 20.4037 85.6371 21.2056 85.6371 22.1649C85.6371 22.9667 85.4798 23.6827 85.1793 24.327C84.8646 24.9713 84.4354 25.5297 83.8489 25.9736C83.2766 26.4318 82.5756 26.7898 81.7745 27.0332C80.959 27.2766 80.0291 27.3911 78.9991 27.3911C77.6114 27.3911 76.4382 27.2766 75.4797 27.0761C74.5212 26.8613 73.7916 26.6323 73.3052 26.4032L74.1492 24.1838C74.5784 24.3986 75.2079 24.6134 76.0663 24.8281C76.9246 25.0429 77.8689 25.1575 78.8989 25.1575C79.4855 25.1575 80.0434 25.1002 80.5441 24.9856C81.0591 24.8711 81.5026 24.7136 81.8746 24.4845C82.2609 24.2554 82.547 23.969 82.7616 23.6111C82.9762 23.2674 83.0763 22.8379 83.0763 22.351" fill="#004289"/>
<path d="M98.1693 26.1599C97.5685 26.5894 96.8818 26.9044 96.0806 27.1049C95.2795 27.3197 94.4497 27.4342 93.5627 27.4342C92.4469 27.4342 91.4883 27.2624 90.7015 26.9331C89.9146 26.5894 89.2709 26.1169 88.7845 25.5012C88.298 24.8855 87.9404 24.1553 87.7115 23.2819C87.4969 22.4085 87.3824 21.4634 87.3824 20.4039C87.3824 18.1559 87.9261 16.409 89.0134 15.1776C90.1149 13.9463 91.6743 13.3306 93.7344 13.3306C94.6357 13.3306 95.4082 13.4165 96.0806 13.574C96.7387 13.7315 97.3396 13.9463 97.8546 14.1754L97.2537 16.0797C96.7959 15.8506 96.3095 15.6502 95.7802 15.5213C95.2509 15.3781 94.6786 15.3208 94.0491 15.3208C91.3023 15.3208 89.929 17.0104 89.929 20.4039C89.929 21.0482 90.0005 21.6782 90.1579 22.2653C90.3152 22.8666 90.5584 23.4107 90.8875 23.8689C91.2308 24.3414 91.6743 24.7137 92.2179 25.0001C92.7616 25.2865 93.434 25.4297 94.2351 25.4297C94.9361 25.4297 95.5656 25.3294 96.0949 25.129C96.6243 24.9285 97.0678 24.6994 97.4254 24.4274L98.1836 26.1313L98.1693 26.1599Z" fill="#004289"/>
<path d="M101.66 20.418C101.66 21.048 101.732 21.6637 101.875 22.2651C102.018 22.8665 102.247 23.4106 102.561 23.8831C102.876 24.3556 103.291 24.7422 103.792 25.0286C104.292 25.3149 104.922 25.4581 105.651 25.4581C108.255 25.4581 109.557 23.7829 109.557 20.418C109.557 19.7594 109.486 19.1294 109.342 18.5137C109.199 17.898 108.971 17.3682 108.67 16.8957C108.355 16.4375 107.955 16.0509 107.454 15.7645C106.953 15.4782 106.352 15.335 105.651 15.335C104.335 15.335 103.348 15.7502 102.676 16.595C101.989 17.4255 101.66 18.7141 101.66 20.418ZM99.1135 20.418C99.1135 19.3155 99.2709 18.3275 99.5427 17.4541C99.8288 16.5807 100.258 15.8361 100.816 15.2348C101.374 14.6191 102.061 14.1609 102.862 13.8316C103.663 13.5022 104.593 13.3447 105.623 13.3447C106.71 13.3447 107.654 13.5165 108.47 13.8745C109.285 14.2325 109.958 14.7336 110.501 15.3636C111.045 15.9936 111.446 16.7525 111.703 17.6116C111.961 18.4707 112.104 19.4014 112.104 20.418C112.104 21.5062 111.961 22.4799 111.66 23.339C111.36 24.1981 110.93 24.9427 110.387 25.5584C109.843 26.1741 109.156 26.6466 108.355 26.9616C107.554 27.2766 106.639 27.4484 105.623 27.4484C104.507 27.4484 103.534 27.2623 102.719 26.9186C101.903 26.5606 101.231 26.0738 100.702 25.4438C100.172 24.8138 99.7716 24.0692 99.5141 23.2101C99.2566 22.351 99.1135 21.4203 99.1135 20.418Z" fill="#004289"/>
<path d="M112.676 13.717H114.936V11.0108L117.268 10.4094V13.717H121.288V15.7072H117.268V22.5228C117.268 23.5824 117.411 24.3413 117.683 24.7851C117.955 25.229 118.413 25.4581 119.085 25.4581C119.5 25.4581 119.886 25.4008 120.244 25.3149C120.587 25.229 120.988 25.1001 121.431 24.9426L121.975 26.5893C121.431 26.8327 120.845 27.0331 120.23 27.1906C119.614 27.3481 118.942 27.4341 118.227 27.4341C117.039 27.4341 116.195 27.1047 115.695 26.4604C115.194 25.8161 114.951 24.7708 114.951 23.3103V15.7072H112.69V13.717H112.676Z" fill="#004289"/>
<path d="M122.962 13.717H125.222V11.0108L127.554 10.4094V13.717H131.574V15.7072H127.554V22.5228C127.554 23.5824 127.697 24.3413 127.969 24.7851C128.241 25.229 128.713 25.4581 129.371 25.4581C129.8 25.4581 130.187 25.4008 130.53 25.3149C130.873 25.229 131.274 25.1001 131.717 24.9426L132.261 26.5893C131.717 26.8327 131.131 27.0331 130.516 27.1906C129.901 27.3481 129.228 27.4341 128.513 27.4341C127.325 27.4341 126.481 27.1047 125.981 26.4604C125.48 25.8161 125.222 24.7708 125.222 23.3103V15.7072H122.962V13.717Z" fill="#004289"/>
<path d="M134.922 13.7171H137.268V27.0762H134.922V13.7171ZM134.436 10.5384C134.436 10.1518 134.593 9.79386 134.893 9.47886C135.194 9.16385 135.594 9.00635 136.095 9.00635C136.596 9.00635 136.996 9.16385 137.311 9.47886C137.64 9.79386 137.798 10.1518 137.798 10.5384C137.798 10.925 137.64 11.2687 137.311 11.5693C136.996 11.87 136.582 12.0132 136.095 12.0132C135.609 12.0132 135.208 11.87 134.893 11.5693C134.593 11.2687 134.436 10.925 134.436 10.5384Z" fill="#004289"/>
<path d="M147.283 23.339C147.283 22.9954 147.211 22.7233 147.054 22.4942C146.882 22.2651 146.667 22.0647 146.396 21.9072C146.124 21.7497 145.809 21.6065 145.451 21.4919C145.094 21.3774 144.722 21.2485 144.336 21.134C143.849 20.9908 143.348 20.8476 142.848 20.6901C142.347 20.5326 141.904 20.3035 141.503 20.0314C141.102 19.7451 140.773 19.3871 140.516 18.9432C140.258 18.4994 140.144 17.9409 140.144 17.268C140.144 15.9507 140.544 14.9627 141.317 14.3184C142.104 13.6741 143.22 13.3447 144.636 13.3447C145.709 13.3447 146.596 13.445 147.34 13.6454C148.069 13.8459 148.699 14.075 149.243 14.3041L148.685 16.2943C148.227 16.0795 147.669 15.8648 147.039 15.65C146.396 15.4495 145.695 15.335 144.936 15.335C144.107 15.335 143.477 15.4639 143.077 15.7359C142.662 16.008 142.461 16.4948 142.461 17.2107C142.461 17.4971 142.533 17.7405 142.69 17.9409C142.848 18.1414 143.048 18.3132 143.306 18.4564C143.563 18.5996 143.849 18.7285 144.193 18.843C144.536 18.9576 144.894 19.0578 145.251 19.158C145.766 19.3012 146.281 19.4587 146.782 19.6305C147.297 19.8023 147.755 20.0458 148.184 20.3464C148.599 20.6471 148.956 21.0194 149.214 21.4776C149.472 21.9358 149.615 22.5085 149.615 23.2101C149.615 24.4702 149.185 25.4868 148.341 26.2743C147.497 27.0618 146.224 27.4627 144.536 27.4627C143.449 27.4627 142.504 27.3482 141.703 27.1334C140.902 26.9186 140.215 26.6609 139.686 26.3745L140.344 24.3413C140.816 24.599 141.431 24.8568 142.175 25.1002C142.919 25.3579 143.677 25.4868 144.436 25.4868C145.265 25.4868 145.952 25.3293 146.481 25.0429C147.011 24.7422 147.283 24.1981 147.283 23.382" fill="#004289"/>
<path d="M161.532 27.0904V19.7021C161.532 18.9718 161.489 18.3418 161.389 17.812C161.303 17.2822 161.131 16.8384 160.888 16.4804C160.645 16.1225 160.316 15.8647 159.901 15.6929C159.486 15.5211 158.957 15.4352 158.327 15.4352C157.884 15.4352 157.454 15.5068 157.025 15.6643C156.61 15.8218 156.21 16.0365 155.852 16.3086C155.494 16.5806 155.194 16.91 154.937 17.2822C154.679 17.6688 154.493 18.0984 154.379 18.5709V27.1047H152.032V9.26392H154.379V15.3779H154.65C155.151 14.7622 155.766 14.2754 156.482 13.9031C157.183 13.5308 158.07 13.3447 159.128 13.3447C159.944 13.3447 160.645 13.4306 161.246 13.6167C161.832 13.7885 162.333 14.1179 162.719 14.5617C163.105 15.0199 163.391 15.6213 163.577 16.3659C163.763 17.1247 163.864 18.0698 163.864 19.2009V27.0904H161.517H161.532Z" fill="#004289"/>
<path d="M182.891 22.1936C182.891 21.6781 182.662 21.2486 182.233 20.9479C181.789 20.6472 181.246 20.3608 180.602 20.1174C179.944 19.8597 179.243 19.602 178.485 19.3442C177.726 19.1008 177.011 18.7572 176.353 18.3276C175.709 17.8981 175.151 17.3683 174.722 16.724C174.279 16.0796 174.05 15.2348 174.05 14.2039C174.05 13.3162 174.207 12.543 174.522 11.87C174.836 11.197 175.28 10.6529 175.838 10.2234C176.41 9.79383 177.097 9.46451 177.898 9.24973C178.699 9.03496 179.586 8.92041 180.559 8.92041C181.675 8.92041 182.734 9.02064 183.749 9.20678C184.765 9.40724 185.595 9.67929 186.239 10.0372L185.037 13.1873C184.837 13.0728 184.579 12.9439 184.264 12.815C183.95 12.6862 183.592 12.5716 183.191 12.4857C182.791 12.3855 182.347 12.3139 181.889 12.2566C181.432 12.1993 180.96 12.1564 180.502 12.1564C179.643 12.1564 179 12.2996 178.527 12.6003C178.055 12.9009 177.826 13.3019 177.826 13.8316C177.826 14.3614 178.041 14.7767 178.485 15.0917C178.928 15.4067 179.472 15.693 180.13 15.9508C180.788 16.2085 181.489 16.4805 182.247 16.7383C183.005 16.996 183.721 17.3397 184.379 17.7549C185.037 18.1701 185.58 18.6856 186.024 19.3156C186.467 19.9456 186.682 20.7618 186.682 21.7354C186.682 22.7091 186.51 23.5682 186.167 24.2841C185.824 25 185.352 25.5871 184.736 26.0596C184.121 26.5178 183.377 26.8757 182.505 27.0905C181.646 27.3196 180.702 27.4198 179.658 27.4198C178.971 27.4198 178.313 27.3769 177.698 27.3053C177.083 27.2337 176.51 27.1335 175.981 27.0332C175.452 26.9187 174.994 26.8041 174.593 26.6753C174.193 26.5464 173.878 26.4175 173.635 26.303L174.879 23.1243C175.065 23.2245 175.323 23.3391 175.652 23.4536C175.981 23.5682 176.353 23.6827 176.754 23.7973C177.154 23.9118 177.598 23.9977 178.07 24.0693C178.542 24.1409 179 24.1696 179.486 24.1696C180.602 24.1696 181.46 24.0121 182.033 23.6827C182.619 23.3677 182.905 22.8666 182.905 22.1793" fill="#00918E"/>
<path d="M191.56 20.418C191.56 20.9765 191.618 21.5062 191.746 21.9931C191.861 22.4942 192.047 22.9094 192.29 23.2817C192.533 23.6397 192.848 23.9404 193.234 24.1552C193.635 24.3699 194.093 24.4845 194.665 24.4845C196.739 24.4845 197.769 23.1242 197.769 20.4037C197.769 19.8167 197.712 19.2582 197.612 18.7714C197.498 18.2703 197.326 17.8407 197.083 17.4684C196.839 17.0962 196.51 16.8241 196.11 16.6093C195.709 16.4089 195.237 16.3086 194.679 16.3086C193.721 16.3086 192.948 16.6237 192.405 17.268C191.847 17.9123 191.575 18.9576 191.575 20.4037M187.912 20.418C187.912 18.213 188.499 16.4805 189.672 15.2348C190.845 13.9747 192.519 13.3447 194.679 13.3447C195.809 13.3447 196.811 13.5165 197.655 13.8745C198.499 14.2325 199.2 14.7336 199.758 15.3636C200.316 15.9936 200.731 16.7525 201.017 17.6116C201.303 18.4707 201.432 19.4014 201.432 20.418C201.432 21.5062 201.274 22.4799 200.974 23.3533C200.659 24.2267 200.23 24.9713 199.658 25.587C199.071 26.2027 198.37 26.6609 197.526 26.9902C196.696 27.3052 195.738 27.4627 194.665 27.4627C193.52 27.4627 192.505 27.2909 191.661 26.9329C190.817 26.575 190.116 26.0738 189.558 25.4438C189 24.7995 188.585 24.0549 188.313 23.1958C188.041 22.3367 187.912 21.406 187.912 20.4037" fill="#00918E"/>
<path d="M213.721 26.26C213.134 26.6466 212.448 26.9472 211.646 27.1477C210.845 27.3482 210.015 27.4484 209.143 27.4484C207.984 27.4484 207.025 27.2766 206.239 26.9472C205.452 26.6036 204.808 26.1311 204.307 25.5011C203.807 24.8711 203.449 24.1265 203.22 23.2817C203.005 22.4226 202.891 21.4633 202.891 20.418C202.891 18.1987 203.449 16.4661 204.536 15.2204C205.623 13.9747 207.226 13.3447 209.3 13.3447C210.316 13.3447 211.146 13.4306 211.804 13.5881C212.462 13.7456 213.034 13.9604 213.549 14.2182L212.691 17.0675C212.247 16.8814 211.818 16.7382 211.375 16.638C210.945 16.5377 210.445 16.5091 209.858 16.5091C208.785 16.5091 207.97 16.8098 207.397 17.4255C206.825 18.0412 206.539 19.0435 206.539 20.418C206.539 20.9621 206.611 21.4633 206.739 21.9358C206.868 22.394 207.083 22.8092 207.369 23.1672C207.655 23.5251 208.027 23.7972 208.47 24.012C208.914 24.2124 209.429 24.3127 210.015 24.3127C210.716 24.3127 211.289 24.2554 211.704 24.1265C212.118 23.9976 212.519 23.8258 212.891 23.6111L213.706 26.2886L213.721 26.26Z" fill="#00918E"/>
<path d="M215.509 13.7172H219.071V27.0763H215.509V13.7172ZM214.98 10.8392C214.98 10.2951 215.166 9.83688 215.566 9.47892C215.953 9.10664 216.51 8.93481 217.226 8.93481C217.941 8.93481 218.528 9.12095 218.957 9.49323C219.386 9.86551 219.601 10.3237 219.601 10.8392C219.601 11.3403 219.386 11.7555 218.957 12.1135C218.528 12.4715 217.955 12.6433 217.226 12.6433C216.496 12.6433 215.953 12.4572 215.566 12.1135C215.18 11.7555 214.98 11.326 214.98 10.8392Z" fill="#00918E"/>
<path d="M226.282 24.4415C227.083 24.4415 227.712 24.2553 228.184 23.8831C228.657 23.5108 229.014 23.1099 229.229 22.7089V21.1769C229.143 21.1482 229.014 21.1053 228.828 21.0766C228.657 21.048 228.456 21.005 228.256 20.9764C228.041 20.9335 227.827 20.9191 227.612 20.8905C227.398 20.8762 227.212 20.8619 227.04 20.8619C226.11 20.8619 225.438 21.0194 224.994 21.363C224.551 21.6923 224.336 22.1076 224.336 22.5944C224.336 23.2101 224.508 23.6683 224.851 23.969C225.194 24.2697 225.667 24.4272 226.267 24.4272M221.632 14.6333C222.405 14.304 223.335 14.0176 224.45 13.7886C225.566 13.5738 226.711 13.4592 227.898 13.4592C228.828 13.4592 229.615 13.5738 230.245 13.7886C230.888 14.0176 231.389 14.3327 231.761 14.7479C232.133 15.1631 232.405 15.6643 232.562 16.2513C232.719 16.8384 232.805 17.4827 232.805 18.1986C232.805 19.0577 232.777 19.9168 232.705 20.7616C232.648 21.6064 232.605 22.5085 232.605 23.4678C232.605 24.1121 232.648 24.7422 232.734 25.3435C232.82 25.9592 232.948 26.5463 233.134 27.1047H230.245L229.658 25.1144H229.358C228.914 25.7158 228.356 26.217 227.684 26.6465C226.997 27.0761 226.124 27.2908 225.066 27.2908C224.422 27.2908 223.835 27.1906 223.292 27.0045C222.762 26.8183 222.305 26.5463 221.918 26.2026C221.532 25.859 221.246 25.4438 221.031 24.9713C220.831 24.4987 220.717 23.9833 220.717 23.4249C220.717 21.9214 221.217 20.776 222.219 20.0028C223.234 19.2296 224.751 18.843 226.811 18.843C227.283 18.843 227.755 18.8859 228.242 18.9575C228.714 19.0291 229.043 19.0864 229.229 19.1293C229.286 18.7714 229.315 18.4707 229.315 18.213C229.315 17.5686 229.157 17.0961 228.828 16.7811C228.499 16.4804 227.898 16.3229 227.026 16.3229C226.21 16.3229 225.409 16.4231 224.651 16.6236C223.878 16.8097 223.192 17.0532 222.605 17.3538L221.661 14.6477L221.632 14.6333Z" fill="#00918E"/>
<path d="M238.771 22.3939C238.771 23.6826 239.186 24.3269 240.016 24.3269C240.259 24.3269 240.473 24.3126 240.688 24.2696C240.903 24.2267 241.146 24.1551 241.432 24.0549L241.861 26.8326C241.532 26.9902 241.046 27.1333 240.431 27.2765C239.815 27.4197 239.172 27.4913 238.513 27.4913C237.455 27.4913 236.625 27.2622 236.053 26.7754C235.481 26.3029 235.209 25.5154 235.209 24.4271V9.26392H238.771V22.3939Z" fill="#00918E"/>
<path d="M82.0749 44.7309C82.0749 44.2011 81.846 43.7859 81.4168 43.4852C80.9734 43.1845 80.4297 42.8981 79.7859 42.6404C79.1278 42.3827 78.4268 42.1249 77.6543 41.8815C76.8961 41.6238 76.1808 41.2801 75.537 40.8649C74.8789 40.4353 74.3353 39.9056 73.8918 39.2612C73.4483 38.6169 73.2337 37.7721 73.2337 36.7412C73.2337 35.8678 73.391 35.0802 73.7058 34.4073C74.0205 33.7343 74.464 33.1902 75.022 32.7607C75.5799 32.3311 76.2809 32.0018 77.0821 31.7727C77.8832 31.5579 78.7702 31.4434 79.743 31.4434C80.8589 31.4434 81.9319 31.5436 82.9333 31.7297C83.949 31.9302 84.7645 32.2022 85.4083 32.5602L84.2209 35.7246C84.0206 35.61 83.7631 35.4812 83.4483 35.3523C83.1336 35.2234 82.7759 35.1232 82.3611 35.023C81.9605 34.9227 81.517 34.8511 81.0735 34.7939C80.6157 34.7366 80.1436 34.708 79.6715 34.708C78.8274 34.708 78.1693 34.8655 77.6972 35.1518C77.2251 35.4525 76.9962 35.8534 76.9962 36.3832C76.9962 36.913 77.2251 37.3282 77.6543 37.6432C78.0978 37.9583 78.6414 38.2446 79.2852 38.5167C79.9433 38.7744 80.6443 39.0465 81.4168 39.3042C82.1751 39.5619 82.8904 39.9056 83.5342 40.3208C84.1923 40.736 84.7359 41.2515 85.1794 41.8815C85.6229 42.5115 85.8375 43.3134 85.8375 44.3013C85.8375 45.2893 85.6658 46.1341 85.3224 46.85C84.9791 47.5659 84.507 48.153 83.8775 48.6255C83.2623 49.098 82.5184 49.4416 81.6601 49.6564C80.8017 49.8855 79.8432 49.9857 78.8131 49.9857C78.1264 49.9857 77.4683 49.9428 76.8388 49.8712C76.2237 49.7996 75.6514 49.6994 75.1221 49.5991C74.5928 49.4846 74.135 49.3701 73.7344 49.2412C73.3338 49.1123 73.0191 48.9978 72.7759 48.8689L74.0205 45.6902C74.2065 45.7904 74.464 45.905 74.7931 46.0195C75.1221 46.1484 75.4941 46.2486 75.8946 46.3632C76.3095 46.4777 76.7387 46.5636 77.2108 46.6209C77.6829 46.6925 78.155 46.7211 78.6271 46.7211C79.743 46.7211 80.6014 46.5636 81.1879 46.2343C81.7745 45.905 82.0606 45.4038 82.0606 44.7309" fill="#00918E"/>
<path d="M93.9204 38.6741C92.8761 38.6741 92.0892 38.9605 91.5885 39.5332C91.0735 40.1059 90.7873 40.8219 90.7015 41.7096H96.4526C96.5098 40.7789 96.3525 40.0343 95.9519 39.4902C95.537 38.9461 94.8789 38.6741 93.949 38.6741M99.2709 48.3963C98.6987 48.8402 97.9118 49.2125 96.9104 49.5275C95.9233 49.8425 94.8503 50 93.7201 50C91.4311 50 89.7573 49.37 88.6843 48.1099C87.6114 46.8499 87.082 45.1317 87.082 42.941C87.082 40.6214 87.6829 38.8602 88.8846 37.6575C90.0863 36.4547 91.7888 35.8677 93.9633 35.8677C94.6786 35.8677 95.3797 35.9536 96.0807 36.1397C96.7674 36.3259 97.3968 36.6122 97.9405 37.0275C98.4841 37.4427 98.9133 38.0011 99.2566 38.7027C99.5857 39.4043 99.7574 40.2778 99.7574 41.3087C99.7574 41.6666 99.7287 42.0532 99.6858 42.4828C99.6429 42.898 99.5714 43.3419 99.4712 43.8001H90.5728C90.6586 44.9599 90.9876 45.8047 91.5742 46.3631C92.1607 46.9215 93.1193 47.1936 94.4354 47.1936C95.2366 47.1936 95.9519 47.079 96.5814 46.8499C97.2108 46.6208 97.6973 46.3917 98.0406 46.1483L99.2566 48.3963H99.2709Z" fill="#00918E"/>
<path d="M109.471 39.5189C108.956 39.3471 108.456 39.2612 107.941 39.2612C107.197 39.2612 106.582 39.4473 106.095 39.791C105.623 40.1489 105.294 40.5928 105.151 41.1369V49.6134H101.589V36.2543H104.393L104.779 38.1157H105.108C105.451 37.4141 105.909 36.8843 106.467 36.512C107.039 36.1398 107.683 35.9536 108.413 35.9536C108.87 35.9536 109.4 36.0395 109.986 36.2257L109.471 39.5189Z" fill="#00918E"/>
</svg>
